<svg width="700" height="151" viewBox="0 0 700 151" fill="none" xmlns="http://www.w3.org/2000/svg">
<path d="M121.554 43.6347H87.4895V33.0324C87.4895 23.6255 95.115 16 104.522 16C113.929 16 121.554 23.6255 121.554 33.0324V43.6347Z" stroke="#1976D2" stroke-width="4.252" stroke-miterlimit="10"/>
<path d="M149.974 135H59.0737C56.3467 135 54.1982 132.668 54.4277 129.959L55.1347 121.475L55.7683 113.955L56.0988 110.044L56.7232 102.561L62.1038 38.2415C62.3058 35.8267 64.3258 33.9719 66.7406 33.9719H142.298C144.722 33.9719 146.742 35.8267 146.935 38.2415L151.104 87.989L151.646 94.4255L151.673 94.7009L152.224 101.321L154.62 129.959C154.85 132.668 152.701 135 149.974 135Z" fill="#1976D2"/>
<path d="M123.561 126.314H85.2436C82.5928 126.314 80.4442 124.165 80.4442 121.515V52.9368C80.4442 50.286 82.5928 48.1375 85.2436 48.1375H123.561C126.211 48.1375 128.36 50.286 128.36 52.9368V121.515C128.36 124.165 126.211 126.314 123.561 126.314Z" fill="white"/>
<path d="M118.118 114.243H90.6857C88.7878 114.243 87.2499 112.705 87.2499 110.808V61.7101C87.2499 59.8122 88.7878 58.2743 90.6857 58.2743H118.118C120.016 58.2743 121.554 59.8122 121.554 61.7101V110.808C121.554 112.705 120.016 114.243 118.118 114.243Z" fill="#BAC7DF"/>
<path d="M128.36 77.7839V52.1903C128.36 49.9526 126.211 48.1383 123.561 48.1383H85.2436C82.5928 48.1383 80.4442 49.9526 80.4442 52.1903V77.7839H128.36Z" fill="#BAC7DF"/>
<path d="M79.4555 73.9578C76.0114 73.9578 73.2183 71.1655 73.2183 67.7205V60.7781H85.6918V67.7205C85.6918 71.1655 82.8996 73.9578 79.4555 73.9578Z" fill="#640075"/>
<path d="M91.9291 73.9578C88.485 73.9578 85.6927 71.1655 85.6927 67.7205V60.7781H98.1663V67.7205C98.1654 71.1655 95.3732 73.9578 91.9291 73.9578Z" fill="#EDF1F7"/>
<path d="M104.403 73.9578C100.958 73.9578 98.1663 71.1655 98.1663 67.7205V60.7781H110.64V67.7205C110.639 71.1655 107.847 73.9578 104.403 73.9578Z" fill="#640075"/>
<path d="M116.876 73.9578C113.432 73.9578 110.639 71.1655 110.639 67.7205V60.7781H123.113V67.7205C123.113 71.1655 120.32 73.9578 116.876 73.9578Z" fill="#EDF1F7"/>
<path d="M129.35 73.9578C125.906 73.9578 123.113 71.1655 123.113 67.7205V60.7781H135.586V67.7205C135.586 71.1655 132.794 73.9578 129.35 73.9578Z" fill="#640075"/>
<path d="M85.6918 60.7793H73.2183L81.0238 48.1385H90.3755L85.6918 60.7793Z" fill="#9C27B0"/>
<path d="M98.1654 60.779H85.6918L90.3755 48.1383H99.7263L98.1654 60.779Z" fill="white"/>
<path d="M110.639 60.779H98.1654L99.7263 48.1383H109.078L110.639 60.779Z" fill="#9C27B0"/>
<path d="M123.113 60.779H110.639L109.078 48.1383H118.429L123.113 60.779Z" fill="white"/>
<path d="M135.586 60.779H123.113L118.429 48.1383H127.781L135.586 60.779Z" fill="#9C27B0"/>
<path d="M152.221 100.186C138.882 108.23 121.066 115.059 101.762 118.877C83.6627 122.445 67.3695 122.74 55.1318 120.342L55.7681 112.82C67.6412 115.786 84.0034 115.82 102.296 112.207C121.27 108.457 138.745 101.504 151.641 93.2886L152.221 100.186Z" fill="#004081"/>
<path d="M128.36 111.431V104.756C120.25 107.838 111.451 110.399 102.296 112.208C94.6048 113.726 87.263 114.593 80.4454 114.876V121.516C80.4454 121.563 80.4583 121.607 80.4592 121.654C87.15 121.255 94.2991 120.349 101.762 118.877C111.09 117.032 120.064 114.478 128.36 111.431Z" fill="#BAC7DF"/>
<path d="M151.673 94.7008C138.01 101.918 120.106 107.721 100.879 110.512C83.5434 113.028 67.9801 112.67 56.0988 110.044L56.7231 102.56C68.3107 105.765 84.0576 106.444 101.751 103.883C120.482 101.165 137.909 95.316 151.104 87.9888L151.645 94.4253L151.673 94.7008Z" fill="white"/>
<path d="M174.754 63.1112C174.831 64.0771 174.814 65.0688 174.68 66.0889C172.386 83.5437 139.509 102.19 101.247 107.739C62.9851 113.287 33.8271 103.635 36.1207 86.1798C36.2548 85.1588 36.5036 84.1341 36.8415 83.1075C34.2072 86.4745 32.5637 89.893 32.1211 93.26C29.8275 110.715 60.3857 120.164 100.377 114.365C140.366 108.567 174.645 89.7166 176.939 72.2619C177.381 68.8958 176.589 65.8309 174.754 63.1112Z" fill="#065BB0"/>
<path d="M212.003 97.4481C210.808 97.4908 209.87 97.1708 209.187 96.4881C208.504 95.8055 208.163 94.9308 208.163 93.8641C208.163 93.0535 208.419 92.3495 208.931 91.7521C209.4 91.1121 210.104 90.7708 211.043 90.7281L212.963 90.6001C214.84 90.4721 216.248 89.8961 217.187 88.8721C218.168 87.8055 218.659 86.2908 218.659 84.3281V55.5281C218.659 54.1628 219 53.1388 219.683 52.4561C220.408 51.7308 221.432 51.3681 222.755 51.3681C224.078 51.3681 225.08 51.7308 225.763 52.4561C226.488 53.1388 226.851 54.1628 226.851 55.5281V84.2641C226.851 86.9521 226.36 89.2348 225.379 91.1121C224.44 92.9895 223.032 94.4615 221.155 95.5281C219.278 96.5521 216.952 97.1495 214.179 97.3201L212.003 97.4481ZM240.77 97.5121C239.448 97.5121 238.424 97.1495 237.698 96.4241C237.016 95.6561 236.674 94.6108 236.674 93.2881V56.0401C236.674 54.6748 237.037 53.6508 237.762 52.9681C238.488 52.2428 239.512 51.8801 240.834 51.8801H256.258C261.208 51.8801 265.026 53.1175 267.714 55.5921C270.402 58.0668 271.746 61.5228 271.746 65.9601C271.746 70.3975 270.402 73.8748 267.714 76.3921C265.026 78.8668 261.208 80.1041 256.258 80.1041H244.866V93.2881C244.866 94.6108 244.525 95.6561 243.842 96.4241C243.16 97.1495 242.136 97.5121 240.77 97.5121ZM244.866 73.6401H254.978C257.88 73.6401 260.077 73.0001 261.57 71.7201C263.064 70.3975 263.81 68.4775 263.81 65.9601C263.81 63.4428 263.064 61.5441 261.57 60.2641C260.077 58.9841 257.88 58.3441 254.978 58.3441H244.866V73.6401ZM278.788 83.0481C277.849 83.0481 277.06 82.7495 276.42 82.1521C275.823 81.5121 275.524 80.7441 275.524 79.8481C275.524 78.9095 275.823 78.1415 276.42 77.5441C277.06 76.9468 277.849 76.6481 278.788 76.6481H292.42C293.316 76.6481 294.063 76.9468 294.66 77.5441C295.3 78.1415 295.62 78.9095 295.62 79.8481C295.62 80.7441 295.3 81.5121 294.66 82.1521C294.063 82.7495 293.316 83.0481 292.42 83.0481H278.788ZM325.354 97.6401C320.661 97.6401 316.629 96.7015 313.258 94.8241C309.93 92.9041 307.37 90.2161 305.578 86.7601C303.786 83.2615 302.89 79.1441 302.89 74.4081C302.89 70.8668 303.402 67.6881 304.426 64.8721C305.45 62.0135 306.922 59.5815 308.842 57.5761C310.762 55.5281 313.109 53.9708 315.882 52.9041C318.698 51.7948 321.855 51.2401 325.354 51.2401C327.701 51.2401 330.005 51.5388 332.266 52.1361C334.527 52.7335 336.511 53.5868 338.218 54.6961C339.114 55.2508 339.711 55.9335 340.01 56.7441C340.309 57.5121 340.373 58.2801 340.202 59.0481C340.031 59.7735 339.669 60.3921 339.114 60.9041C338.602 61.4161 337.941 61.7148 337.13 61.8001C336.362 61.8428 335.509 61.5655 334.57 60.9681C333.247 60.1148 331.818 59.4961 330.282 59.1121C328.746 58.7281 327.189 58.5361 325.61 58.5361C322.581 58.5361 320.021 59.1548 317.93 60.3921C315.839 61.6295 314.261 63.4215 313.194 65.7681C312.127 68.1148 311.594 70.9948 311.594 74.4081C311.594 77.7788 312.127 80.6588 313.194 83.0481C314.261 85.4375 315.839 87.2508 317.93 88.4881C320.021 89.7255 322.581 90.3441 325.61 90.3441C327.231 90.3441 328.831 90.1521 330.41 89.7681C331.989 89.3415 333.482 88.7015 334.89 87.8481C335.829 87.2935 336.661 87.0588 337.386 87.1441C338.154 87.1868 338.794 87.4428 339.306 87.9121C339.818 88.3815 340.159 88.9788 340.33 89.7041C340.501 90.3868 340.458 91.1121 340.202 91.8801C339.946 92.6055 339.434 93.2455 338.666 93.8001C336.959 95.0375 334.911 95.9975 332.522 96.6801C330.175 97.3201 327.786 97.6401 325.354 97.6401ZM366.648 97.6401C362.296 97.6401 358.478 96.6801 355.192 94.7601C351.95 92.8401 349.432 90.1521 347.64 86.6961C345.848 83.1975 344.952 79.1015 344.952 74.4081C344.952 70.8668 345.464 67.6881 346.488 64.8721C347.512 62.0135 348.963 59.5815 350.84 57.5761C352.76 55.5281 355.043 53.9708 357.688 52.9041C360.376 51.7948 363.363 51.2401 366.648 51.2401C371.043 51.2401 374.862 52.2001 378.104 54.1201C381.347 55.9975 383.864 58.6641 385.656 62.1201C387.448 65.5761 388.344 69.6508 388.344 74.3441C388.344 77.8855 387.832 81.0855 386.808 83.9441C385.784 86.8028 384.312 89.2561 382.392 91.3041C380.515 93.3521 378.232 94.9308 375.544 96.0401C372.899 97.1068 369.934 97.6401 366.648 97.6401ZM366.648 90.6001C369.422 90.6001 371.768 89.9601 373.688 88.6801C375.651 87.4001 377.144 85.5441 378.168 83.1121C379.235 80.6801 379.768 77.7788 379.768 74.4081C379.768 69.2881 378.616 65.3201 376.312 62.5041C374.051 59.6881 370.83 58.2801 366.648 58.2801C363.918 58.2801 361.571 58.9201 359.608 60.2001C357.646 61.4375 356.131 63.2721 355.064 65.7041C354.04 68.0935 353.528 70.9948 353.528 74.4081C353.528 79.4855 354.68 83.4535 356.984 86.3121C359.288 89.1708 362.51 90.6001 366.648 90.6001ZM400.514 97.5121C399.32 97.5121 398.402 97.1708 397.762 96.4881C397.122 95.8055 396.802 94.8668 396.802 93.6721V55.2081C396.802 53.9708 397.144 53.0321 397.826 52.3921C398.509 51.7095 399.448 51.3681 400.642 51.3681C401.709 51.3681 402.541 51.5815 403.138 52.0081C403.778 52.3921 404.354 53.0748 404.866 54.0561L420.674 83.3041H418.626L434.434 54.0561C434.946 53.0748 435.501 52.3921 436.098 52.0081C436.696 51.5815 437.528 51.3681 438.594 51.3681C439.789 51.3681 440.706 51.7095 441.346 52.3921C441.986 53.0321 442.306 53.9708 442.306 55.2081V93.6721C442.306 94.8668 441.986 95.8055 441.346 96.4881C440.749 97.1708 439.832 97.5121 438.594 97.5121C437.4 97.5121 436.482 97.1708 435.842 96.4881C435.202 95.8055 434.882 94.8668 434.882 93.6721V64.0401H436.29L422.85 88.5521C422.424 89.2775 421.976 89.8108 421.506 90.1521C421.037 90.4935 420.397 90.6641 419.586 90.6641C418.776 90.6641 418.114 90.4935 417.602 90.1521C417.09 89.7681 416.642 89.2348 416.258 88.5521L402.69 63.9761H404.226V93.6721C404.226 94.8668 403.906 95.8055 403.266 96.4881C402.669 97.1708 401.752 97.5121 400.514 97.5121ZM456.077 97.5121C454.882 97.5121 453.965 97.1708 453.325 96.4881C452.685 95.8055 452.365 94.8668 452.365 93.6721V55.2081C452.365 53.9708 452.706 53.0321 453.389 52.3921C454.072 51.7095 455.01 51.3681 456.205 51.3681C457.272 51.3681 458.104 51.5815 458.701 52.0081C459.341 52.3921 459.917 53.0748 460.429 54.0561L476.237 83.3041H474.189L489.997 54.0561C490.509 53.0748 491.064 52.3921 491.661 52.0081C492.258 51.5815 493.09 51.3681 494.157 51.3681C495.352 51.3681 496.269 51.7095 496.909 52.3921C497.549 53.0321 497.869 53.9708 497.869 55.2081V93.6721C497.869 94.8668 497.549 95.8055 496.909 96.4881C496.312 97.1708 495.394 97.5121 494.157 97.5121C492.962 97.5121 492.045 97.1708 491.405 96.4881C490.765 95.8055 490.445 94.8668 490.445 93.6721V64.0401H491.853L478.413 88.5521C477.986 89.2775 477.538 89.8108 477.069 90.1521C476.6 90.4935 475.96 90.6641 475.149 90.6641C474.338 90.6641 473.677 90.4935 473.165 90.1521C472.653 89.7681 472.205 89.2348 471.821 88.5521L458.253 63.9761H459.789V93.6721C459.789 94.8668 459.469 95.8055 458.829 96.4881C458.232 97.1708 457.314 97.5121 456.077 97.5121ZM512.151 97.0001C510.743 97.0001 509.655 96.6375 508.887 95.9121C508.162 95.1441 507.799 94.0561 507.799 92.6481V56.2321C507.799 54.8241 508.162 53.7575 508.887 53.0321C509.655 52.2641 510.743 51.8801 512.151 51.8801H534.999C536.066 51.8801 536.877 52.1575 537.431 52.7121C538.029 53.2668 538.327 54.0561 538.327 55.0801C538.327 56.1468 538.029 56.9788 537.431 57.5761C536.877 58.1308 536.066 58.4081 534.999 58.4081H515.671V70.8241H533.591C534.701 70.8241 535.533 71.1015 536.087 71.6561C536.642 72.2108 536.919 73.0215 536.919 74.0881C536.919 75.1548 536.642 75.9655 536.087 76.5201C535.533 77.0748 534.701 77.3521 533.591 77.3521H515.671V90.4721H534.999C536.066 90.4721 536.877 90.7495 537.431 91.3041C538.029 91.8588 538.327 92.6695 538.327 93.7361C538.327 94.8028 538.029 95.6135 537.431 96.1681C536.877 96.7228 536.066 97.0001 534.999 97.0001H512.151ZM550.083 97.5121C548.76 97.5121 547.736 97.1495 547.011 96.4241C546.328 95.6561 545.987 94.6108 545.987 93.2881V56.0401C545.987 54.6748 546.35 53.6508 547.075 52.9681C547.8 52.2428 548.824 51.8801 550.147 51.8801H565.571C570.52 51.8801 574.339 53.0748 577.027 55.4641C579.715 57.8108 581.059 61.1175 581.059 65.3841C581.059 68.1575 580.44 70.5468 579.203 72.5521C578.008 74.5575 576.259 76.0935 573.955 77.1601C571.651 78.2268 568.856 78.7601 565.571 78.7601L566.147 77.8001H568.259C570.008 77.8001 571.523 78.2268 572.803 79.0801C574.126 79.9335 575.278 81.2775 576.259 83.1121L581.059 92.0081C581.571 92.9041 581.806 93.7788 581.763 94.6321C581.72 95.4855 581.4 96.1895 580.803 96.7441C580.206 97.2561 579.331 97.5121 578.179 97.5121C577.027 97.5121 576.088 97.2775 575.363 96.8081C574.638 96.2961 573.998 95.5281 573.443 94.5041L566.979 82.6001C566.211 81.1495 565.294 80.1895 564.227 79.7201C563.203 79.2081 561.88 78.9521 560.259 78.9521H554.179V93.2881C554.179 94.6108 553.838 95.6561 553.155 96.4241C552.472 97.1495 551.448 97.5121 550.083 97.5121ZM554.179 72.8721H564.163C567.107 72.8721 569.326 72.2748 570.819 71.0801C572.355 69.8428 573.123 68.0081 573.123 65.5761C573.123 63.1868 572.355 61.3948 570.819 60.2001C569.326 58.9628 567.107 58.3441 564.163 58.3441H554.179V72.8721ZM610.541 97.6401C605.848 97.6401 601.816 96.7015 598.445 94.8241C595.117 92.9041 592.557 90.2161 590.765 86.7601C588.973 83.2615 588.077 79.1441 588.077 74.4081C588.077 70.8668 588.589 67.6881 589.613 64.8721C590.637 62.0135 592.109 59.5815 594.029 57.5761C595.949 55.5281 598.296 53.9708 601.069 52.9041C603.885 51.7948 607.043 51.2401 610.541 51.2401C612.888 51.2401 615.192 51.5388 617.453 52.1361C619.715 52.7335 621.699 53.5868 623.405 54.6961C624.301 55.2508 624.899 55.9335 625.197 56.7441C625.496 57.5121 625.56 58.2801 625.389 59.0481C625.219 59.7735 624.856 60.3921 624.301 60.9041C623.789 61.4161 623.128 61.7148 622.317 61.8001C621.549 61.8428 620.696 61.5655 619.757 60.9681C618.435 60.1148 617.005 59.4961 615.469 59.1121C613.933 58.7281 612.376 58.5361 610.797 58.5361C607.768 58.5361 605.208 59.1548 603.117 60.3921C601.027 61.6295 599.448 63.4215 598.381 65.7681C597.315 68.1148 596.781 70.9948 596.781 74.4081C596.781 77.7788 597.315 80.6588 598.381 83.0481C599.448 85.4375 601.027 87.2508 603.117 88.4881C605.208 89.7255 607.768 90.3441 610.797 90.3441C612.419 90.3441 614.019 90.1521 615.597 89.7681C617.176 89.3415 618.669 88.7015 620.077 87.8481C621.016 87.2935 621.848 87.0588 622.573 87.1441C623.341 87.1868 623.981 87.4428 624.493 87.9121C625.005 88.3815 625.347 88.9788 625.517 89.7041C625.688 90.3868 625.645 91.1121 625.389 91.8801C625.133 92.6055 624.621 93.2455 623.853 93.8001C622.147 95.0375 620.099 95.9975 617.709 96.6801C615.363 97.3201 612.973 97.6401 610.541 97.6401ZM637.401 97.0001C635.993 97.0001 634.905 96.6375 634.137 95.9121C633.412 95.1441 633.049 94.0561 633.049 92.6481V56.2321C633.049 54.8241 633.412 53.7575 634.137 53.0321C634.905 52.2641 635.993 51.8801 637.401 51.8801H660.249C661.316 51.8801 662.127 52.1575 662.681 52.7121C663.279 53.2668 663.577 54.0561 663.577 55.0801C663.577 56.1468 663.279 56.9788 662.681 57.5761C662.127 58.1308 661.316 58.4081 660.249 58.4081H640.921V70.8241H658.841C659.951 70.8241 660.783 71.1015 661.337 71.6561C661.892 72.2108 662.169 73.0215 662.169 74.0881C662.169 75.1548 661.892 75.9655 661.337 76.5201C660.783 77.0748 659.951 77.3521 658.841 77.3521H640.921V90.4721H660.249C661.316 90.4721 662.127 90.7495 662.681 91.3041C663.279 91.8588 663.577 92.6695 663.577 93.7361C663.577 94.8028 663.279 95.6135 662.681 96.1681C662.127 96.7228 661.316 97.0001 660.249 97.0001H637.401Z" fill="#1976D2"/>
</svg>
